<?xml version="1.0" standalone="no"?><!DOCTYPE svg PUBLIC "-//W3C//DTD SVG 1.1//EN" "http://www.w3.org/Graphics/SVG/1.1/DTD/svg11.dtd"><svg t="1528367263311" class="icon" style="" viewBox="0 0 1024 1024" version="1.1" xmlns="http://www.w3.org/2000/svg" p-id="1037" xmlns:xlink="http://www.w3.org/1999/xlink" width="200" height="200"><defs><style type="text/css"></style></defs><path d="M432.417 568.209l66.323-201.267 205.983-205.983h-492.533c-14.22 0-23.65 9.474-23.65 23.65v757.715c0 14.22 9.474 23.65 23.65 23.65h615.664c14.22 0 23.65-9.474 23.65-23.65v-660.635l-217.849 217.849-201.267 68.646zM235.855 397.722h213.127v47.367h-213.127v-47.367zM235.855 539.785h189.425v47.367h-189.425v-47.367zM543.672 729.221h-307.819v-47.367h307.819v47.367zM946.227 56.737c-18.95-18.95-47.367-18.95-66.323 0l-333.879 333.879-49.714 116.025 116.025-49.714 333.879-333.879c18.95-16.591 18.95-47.367 0-66.323z" p-id="1038"></path></svg>